<svg xmlns="http://www.w3.org/2000/svg" viewBox="0 0 153.47 159.6"><defs><style>.cls-1{fill:#ff0;stroke:#29abe2;stroke-width:5px;}.cls-1,.cls-2{stroke-miterlimit:10;}.cls-2{fill:#29abe2;stroke:#0071bc;}</style></defs><g id="Layer_2"><g id="Layer_1-2"><path class="cls-1" d="M147.1,53.49H106.55a3.87,3.87,0,0,1-3.87-3.86V6.37A3.86,3.86,0,0,0,98.82,2.5H53.45a3.87,3.87,0,0,0-3.87,3.81L48.87,50.5A3.87,3.87,0,0,1,45,54.3H6.37A3.87,3.87,0,0,0,2.5,58.17V97.38a3.87,3.87,0,0,0,3.87,3.87H45.78a3.87,3.87,0,0,1,3.87,3.87v48.11a3.86,3.86,0,0,0,3.86,3.87H96.44a3.87,3.87,0,0,0,3.87-3.87V105.12a3.86,3.86,0,0,1,3.86-3.87H147.1A3.87,3.87,0,0,0,151,97.38v-40A3.88,3.88,0,0,0,147.1,53.49Z"/><path class="cls-2" d="M85.67,15.8h4v27H85.5V22.58l.21,1.18L78.22,39h-3l-7.5-14.9L68,22.58v20.2H63.8v-27h4l8.93,17.82Z"/><path class="cls-2" d="M66,67.8h4.27v27H66Zm2.66,11.9H85.5v3.6H68.61ZM83.24,67.8h4.27v27H83.24Z"/><path class="cls-2" d="M74.91,119.8h3.64l11.22,27h-4.6L76.73,125,68.3,146.78H63.69Zm-6,17.46h16v3.6h-16Z"/></g></g></svg>